<?xml version="1.0" standalone="no"?>
<!DOCTYPE svg PUBLIC "-//W3C//DTD SVG 20010904//EN"
 "http://www.w3.org/TR/2001/REC-SVG-20010904/DTD/svg10.dtd">
<svg version="1.0" xmlns="http://www.w3.org/2000/svg"
 width="40.000000pt" height="40.000000pt" viewBox="0 0 40.000000 40.000000"
 preserveAspectRatio="xMidYMid meet">
<metadata>
Created by potrace 1.16, written by Peter Selinger 2001-2019
</metadata>
<g transform="translate(0.000000,40.000000) scale(0.007394,-0.007286)"
fill="#000000" stroke="none">
<path d="M2395 5329 c-645 -38 -1313 -227 -1849 -521 -105 -58 -139 -79 -106
-65 8 3 80 33 159 67 542 229 1138 370 1737 411 236 16 689 6 918 -20 544 -63
1017 -187 1541 -405 61 -25 101 -39 90 -30 -36 28 -417 211 -535 257 -618 241
-1287 346 -1955 306z"/>
<path d="M1560 4560 c-211 -19 -414 -75 -579 -160 -81 -41 -116 -53 -211 -70
-309 -54 -509 -139 -560 -240 -19 -38 -20 -56 -20 -715 0 -645 1 -676 19 -694
14 -14 46 -21 152 -30 74 -7 144 -14 156 -16 21 -5 48 -59 37 -76 -3 -5 -53
-9 -112 -9 -60 0 -102 -4 -97 -9 27 -24 713 -50 1305 -51 1029 0 1975 69 2830
206 213 34 560 102 570 111 3 3 -28 2 -69 -2 l-74 -7 26 33 c14 19 31 56 38
82 14 59 7 162 -15 205 l-17 32 31 0 c48 0 93 24 132 69 44 52 67 119 81 244
19 169 -16 291 -112 390 -66 70 -122 95 -249 112 -94 14 -109 19 -126 40 -31
44 -67 54 -240 70 -208 19 -250 19 -287 0 -26 -14 -43 -14 -130 -3 -92 11
-102 15 -121 40 -34 49 -65 58 -278 75 -171 15 -206 15 -242 4 -53 -17 -108
-18 -218 -2 -72 10 -88 16 -95 34 -21 46 -65 58 -278 78 -205 20 -255 19 -294
-6 -18 -12 -47 -11 -210 10 -103 13 -223 27 -265 31 l-78 7 0 73 c0 82 -10
118 -38 133 -28 15 -248 21 -362 11z m259 -64 c-2 -2 -45 -20 -94 -39 -93 -35
-255 -113 -255 -122 0 -3 17 2 38 11 98 42 348 124 379 124 2 0 3 -67 3 -148
l0 -149 -112 -6 c-62 -4 -141 -7 -175 -7 -34 0 -65 -4 -68 -10 -4 -6 19 -10
62 -10 37 0 119 -3 181 -7 l112 -6 0 -406 c0 -223 -4 -412 -9 -420 -7 -11 -52
-16 -188 -23 -205 -9 -250 -15 -142 -17 42 0 97 -4 123 -7 l46 -7 0 -53 0 -54
386 0 387 0 -6 -72 -5 -73 18 68 c20 75 40 111 71 127 14 8 87 10 219 8 216
-3 225 -5 273 -70 22 -29 34 -119 27 -198 l-5 -55 -8 60 c-11 90 -35 151 -68
180 -29 24 -37 25 -150 25 -117 0 -121 -1 -144 -26 -33 -35 -45 -83 -45 -176
l0 -78 -57 0 c-32 0 -233 -9 -448 -20 -214 -11 -415 -20 -446 -20 l-56 0 -5
98 c-6 112 -29 171 -81 202 -28 17 -51 20 -179 20 l-148 0 -42 -37 c-45 -42
-84 -115 -94 -179 l-6 -41 -75 -7 c-122 -10 -323 -7 -548 9 -116 8 -216 15
-222 15 -10 0 -13 60 -13 265 0 146 1 265 3 266 11 2 592 27 594 25 1 -1 8
-110 14 -242 6 -131 12 -240 14 -242 1 -1 5 89 9 200 4 112 9 222 13 246 l5
42 132 1 c72 0 157 4 189 8 l57 7 1 -100 c2 -180 15 -159 24 35 11 262 -5 538
-33 566 -25 24 -466 13 -767 -21 -126 -14 -236 -26 -242 -26 -9 0 -13 17 -13
49 0 39 4 51 18 55 62 19 460 68 597 73 88 3 167 10 175 15 23 14 -399 0 -587
-20 -90 -9 -163 -14 -163 -11 0 17 106 72 203 104 181 61 385 95 642 108 33 2
9 4 -52 5 -62 1 -113 6 -113 11 0 14 170 88 266 116 78 23 191 45 289 58 41 5
299 8 294 3z m291 -262 c49 -45 92 -133 116 -239 28 -119 26 -391 -4 -497 -23
-85 -58 -158 -97 -203 l-26 -30 29 60 c54 111 66 181 67 385 0 164 -9 289 -20
278 -3 -2 -1 -49 4 -103 15 -181 -11 -390 -64 -510 -23 -52 -70 -115 -86 -115
-5 0 -9 208 -9 505 l0 505 25 0 c15 0 42 -15 65 -36z m545 -39 c231 -30 665
-89 965 -130 300 -41 714 -98 920 -125 417 -57 446 -64 511 -138 60 -68 83
-139 83 -252 0 -52 -6 -120 -13 -150 -15 -60 -44 -125 -62 -135 -6 -4 -4 6 4
22 9 16 18 44 22 64 l6 35 -1403 53 c-772 30 -1404 55 -1406 56 -2 2 2 43 9
91 7 54 9 141 6 219 -8 191 -37 310 -99 403 -15 24 -28 45 -28 47 0 2 15 2 33
-1 17 -3 221 -29 452 -59z m-2010 -470 l0 -110 -46 -5 c-33 -4 -57 -15 -82
-37 -25 -22 -50 -33 -82 -37 -25 -3 -65 -9 -90 -12 l-45 -5 0 155 0 155 123 4
c67 2 145 3 172 3 l50 -1 0 -110z m3865 -504 c288 -6 242 -7 -330 -8 -366 -1
-676 3 -690 7 -30 10 551 10 1020 1z m-1180 -186 l0 -115 38 0 c36 0 38 -3 67
-64 l30 -64 -50 -6 c-27 -3 -128 -8 -223 -12 -167 -6 -174 -6 -170 12 2 11 11
17 19 15 44 -12 57 -11 78 6 43 35 53 234 16 326 -7 15 2 17 94 17 l101 0 0
-115z"/>
<path d="M2555 3864 c28 -5 474 -48 805 -78 587 -54 1475 -121 1507 -114 20 4
-156 22 -647 68 -771 72 -1806 149 -1665 124z"/>
<path d="M2329 3723 c0 -54 -4 -122 -8 -150 -5 -36 -4 -53 3 -54 6 0 630 -26
1386 -57 997 -42 1377 -55 1382 -47 10 16 15 172 5 181 -7 7 -2641 223 -2729
224 l-38 0 -1 -97z"/>
<path d="M4805 2402 c-267 -727 -824 -1371 -1617 -1866 -142 -89 -458 -263
-495 -272 -43 -11 -446 212 -713 394 -265 180 -413 303 -640 531 -229 230
-388 428 -535 671 -63 104 -192 357 -220 433 -10 26 -20 46 -22 43 -10 -10
100 -279 177 -432 150 -297 339 -560 587 -815 342 -352 754 -649 1234 -890
l119 -59 93 46 c775 389 1370 908 1742 1519 81 132 190 355 238 485 42 113
109 330 105 341 -2 4 -25 -54 -53 -129z"/>
<path d="M1720 2400 c-158 -34 -230 -148 -217 -348 8 -138 60 -217 168 -258
69 -27 244 -24 337 4 l72 23 0 79 c0 73 2 80 20 80 18 0 20 7 20 60 l0 60
-145 0 -145 0 0 -60 c0 -57 1 -60 25 -60 29 0 32 -16 9 -48 -10 -15 -25 -22
-49 -22 -60 0 -65 14 -65 180 0 166 5 180 65 180 39 0 65 -29 65 -72 l0 -28
100 0 100 0 0 95 0 94 -66 20 c-75 24 -229 34 -294 21z"/>
<path d="M2297 2219 c-111 -26 -167 -100 -167 -219 0 -102 45 -175 128 -207
56 -21 196 -24 255 -4 l37 13 0 57 0 58 -92 -4 c-114 -6 -129 2 -135 73 -3 27
0 61 6 77 9 22 17 27 46 27 31 0 36 -3 42 -30 5 -30 6 -30 74 -30 l69 0 0 75
c0 71 -1 75 -27 89 -63 31 -163 42 -236 25z"/>
<path d="M2737 2220 c-112 -29 -167 -101 -167 -220 0 -148 87 -226 250 -224
134 1 209 55 232 168 24 112 -21 219 -108 258 -51 22 -153 31 -207 18z m117
-146 c3 -9 6 -42 6 -74 0 -79 -5 -90 -46 -90 -40 0 -54 24 -54 90 0 66 14 90
54 90 22 0 36 -6 40 -16z"/>
<path d="M3380 2214 c-19 -8 -45 -25 -57 -36 l-23 -21 0 31 0 32 -110 0 -110
0 0 -65 c0 -51 3 -65 15 -65 12 0 15 -17 15 -90 0 -73 -3 -90 -15 -90 -12 0
-15 -14 -15 -65 l0 -65 125 0 125 0 0 65 c0 51 -3 65 -15 65 -12 0 -15 15 -15
78 0 86 8 102 52 102 37 0 48 -24 48 -109 0 -64 -2 -71 -20 -71 -18 0 -20 -7
-20 -65 l0 -65 130 0 130 0 0 65 c0 58 -2 65 -20 65 -18 0 -20 7 -20 78 0 85
8 102 50 102 42 0 50 -17 50 -102 0 -63 -3 -78 -15 -78 -12 0 -15 -14 -15 -65
l0 -65 125 0 125 0 0 65 c0 57 -2 65 -19 65 -18 0 -20 10 -23 114 -3 130 -15
156 -83 190 -34 17 -45 18 -92 8 -30 -6 -67 -21 -84 -33 -27 -19 -32 -20 -47
-5 -24 21 -86 46 -114 46 -13 -1 -39 -8 -58 -16z"/>
<path d="M1700 1660 c0 -11 5 -20 10 -20 6 0 10 -28 10 -65 0 -37 -4 -65 -10
-65 -5 0 -10 -9 -10 -20 0 -18 7 -20 65 -20 58 0 65 2 65 20 0 13 -7 20 -20
20 -15 0 -20 7 -20 25 0 18 5 25 20 25 11 0 20 7 20 15 0 8 -9 15 -20 15 -15
0 -20 7 -20 25 0 16 6 25 15 25 8 0 15 -7 15 -15 0 -8 4 -15 9 -15 6 0 15 -27
22 -61 13 -68 38 -91 78 -70 14 8 21 8 21 1 0 -5 16 -10 36 -10 36 0 36 1 30
31 -3 17 -6 51 -6 75 0 44 0 44 -35 44 l-35 0 6 -55 c6 -47 4 -55 -10 -55 -13
0 -16 11 -16 55 0 52 -1 55 -25 55 -21 0 -25 5 -25 30 l0 30 -85 0 c-78 0 -85
-2 -85 -20z"/>
<path d="M2370 1660 c0 -11 5 -20 10 -20 6 0 10 -28 10 -65 0 -37 -4 -65 -10
-65 -5 0 -10 -9 -10 -20 0 -17 7 -20 50 -20 43 0 50 3 50 20 0 11 -4 20 -10
20 -6 0 -10 24 -9 53 l1 52 34 -72 c18 -40 39 -73 47 -73 7 0 23 29 36 65 13
36 26 65 29 65 2 0 2 -29 -1 -65 l-6 -65 54 0 c43 0 55 3 55 16 0 13 2 13 14
2 9 -9 40 -15 90 -16 86 -2 83 -5 63 82 -14 58 -40 72 -113 61 -61 -9 -61 -35
1 -35 54 0 60 -15 9 -24 -19 -4 -43 -16 -52 -27 -27 -31 -32 -23 -32 46 0 37
4 65 10 65 6 0 10 9 10 20 0 18 -7 20 -64 20 l-64 0 -12 -37 c-18 -57 -26 -59
-40 -9 l-13 46 -68 0 c-62 0 -69 -2 -69 -20z"/>
<path d="M2071 1608 c-33 -18 -46 -60 -29 -94 16 -33 57 -48 104 -40 46 9 45
34 -3 38 -56 5 -55 28 1 28 38 0 46 3 46 18 0 47 -70 76 -119 50z"/>
<path d="M2894 1545 l0 -75 38 0 38 0 -6 56 c-6 51 -5 56 12 52 13 -2 20 -13
22 -36 2 -18 -1 -32 -7 -32 -6 0 -11 -9 -11 -20 0 -17 7 -20 45 -20 34 0 45 4
45 16 0 13 2 13 14 2 9 -9 40 -15 90 -16 86 -2 83 -5 63 82 -14 58 -40 72
-113 61 -61 -9 -61 -35 1 -35 53 0 60 -15 10 -24 -19 -4 -43 -16 -54 -27 -18
-20 -18 -19 -24 22 -8 58 -28 77 -67 62 -17 -6 -30 -7 -30 -2 0 5 -15 9 -33 9
l-33 0 0 -75z"/>
<path d="M3276 1604 c-10 -9 -16 -33 -16 -59 0 -65 33 -90 82 -64 18 10 20 9
15 -6 -4 -9 -7 -19 -7 -21 0 -2 -18 -4 -40 -4 -28 0 -40 -4 -40 -15 0 -18 64
-31 99 -19 34 12 47 44 54 132 l6 72 -35 0 c-19 0 -34 -5 -34 -10 0 -7 -6 -7
-19 0 -27 14 -47 13 -65 -6z"/>
<path d="M3471 1608 c-33 -18 -46 -60 -29 -94 16 -33 57 -48 104 -40 46 9 45
34 -3 38 -56 5 -55 28 1 28 38 0 46 3 46 18 0 47 -70 76 -119 50z"/>
</g>
</svg>
